<svg xmlns="http://www.w3.org/2000/svg" viewBox="0 0 42.46 41.412">
  <defs>
    <style>
      .cls-1 {
        fill: rgba(0,0,0,0.39);
        fill-rule: evenodd;
      }
    </style>
  </defs>
  <path id="mark-github" class="cls-1" d="M21.23,0a21.231,21.231,0,0,0-6.714,41.372c1.061.186,1.46-.451,1.46-1.008,0-.5-.027-2.176-.027-3.954-5.334.982-6.714-1.3-7.139-2.495a7.72,7.72,0,0,0-2.176-3c-.743-.4-1.8-1.38-.027-1.406,1.672-.027,2.866,1.539,3.264,2.176a4.538,4.538,0,0,0,6.183,1.751A4.466,4.466,0,0,1,17.409,30.6c-4.724-.531-9.66-2.362-9.66-10.482A8.262,8.262,0,0,1,9.925,14.41a7.629,7.629,0,0,1,.212-5.626s1.778-.557,5.838,2.176a20.016,20.016,0,0,1,10.615,0c4.06-2.76,5.838-2.176,5.838-2.176a7.629,7.629,0,0,1,.212,5.626,8.214,8.214,0,0,1,2.176,5.706c0,8.147-4.962,9.952-9.686,10.482a5.028,5.028,0,0,1,1.433,3.928c0,2.839-.027,5.122-.027,5.838,0,.557.4,1.221,1.46,1.008A21.241,21.241,0,0,0,21.23,0Z"/>
</svg>
