<?xml version="1.0" encoding="UTF-8"?>
<svg xmlns="http://www.w3.org/2000/svg" xmlns:xlink="http://www.w3.org/1999/xlink" viewBox="0 0 192 192" width="192px" height="192px">
<g id="surface19122106">
<path style=" stroke:none;fill-rule:nonzero;fill:rgb(40.000001%,40.000001%,40.000001%);fill-opacity:1;" d="M 88 32 L 24 72 L 67.9375 72 C 67.773438 72.605469 67.507812 73.152344 67.375 73.78125 C 67.007812 75.71875 66.71875 77.847656 66.71875 80.0625 C 66.71875 108.628906 95.921875 105.40625 95.921875 105.40625 L 95.921875 112.6875 C 95.921875 115.640625 99.792969 114.617188 100.25 120.609375 C 98.3125 120.609375 59.796875 119.5 59.796875 145.484375 C 59.796875 171.5625 93.796875 170.28125 93.796875 170.28125 C 93.796875 170.28125 133.0625 172.039062 133.0625 139.78125 C 133.078125 120.507812 110.578125 114.234375 110.578125 106.5 C 110.578125 98.667969 127.53125 96.367188 127.53125 78.03125 C 127.53125 70.015625 126.984375 64.304688 123.390625 60.25 C 123.109375 59.96875 122.929688 59.777344 122.65625 59.59375 C 122.59375 59.535156 122.515625 59.496094 122.453125 59.4375 L 123.4375 59.4375 L 140 47.015625 L 140 64 C 139.996094 64.308594 140.027344 64.621094 140.09375 64.921875 C 137.535156 66.351562 135.964844 69.070312 136 72 L 136 80 C 135.960938 82.886719 137.476562 85.570312 139.96875 87.023438 C 142.457031 88.476562 145.542969 88.476562 148.03125 87.023438 C 150.523438 85.570312 152.039062 82.886719 152 80 L 152 72 C 152.035156 69.070312 150.464844 66.351562 147.90625 64.921875 C 147.972656 64.621094 148.003906 64.308594 148 64 L 148 41 L 160 32 Z M 93.53125 56.421875 C 95.832031 56.316406 98.152344 56.878906 100.359375 58.125 C 102.015625 58.957031 103.570312 60.144531 104.953125 61.625 C 107.808594 64.480469 110.210938 68.628906 111.5 73.515625 C 114.539062 85.125 110.589844 96.285156 102.390625 98.40625 C 94.277344 100.703125 85.238281 93.128906 82.109375 81.609375 C 80.726562 75.992188 80.917969 70.5625 82.484375 66.234375 C 82.5 66.179688 82.53125 66.132812 82.546875 66.078125 C 82.574219 66.066406 82.613281 66.027344 82.640625 66.015625 C 83.089844 64.304688 83.824219 62.769531 84.71875 61.5 C 86.363281 59.097656 88.53125 57.46875 91.234375 56.75 C 91.996094 56.566406 92.765625 56.457031 93.53125 56.421875 Z M 96.65625 125.484375 C 110.199219 124.46875 121.730469 131.925781 122.5625 142.0625 C 123.121094 152.109375 112.703125 161.046875 99.0625 161.96875 C 85.519531 162.890625 73.820312 155.53125 73.171875 145.484375 C 72.523438 135.347656 83.015625 126.5 96.65625 125.484375 Z M 96.65625 125.484375 "/>
</g>
</svg>
