<svg xmlns="http://www.w3.org/2000/svg" viewBox="0 0 40 38.222">
  <defs>
    <style>
      .cls-1 {
        fill: #3795c1;
      }
    </style>
  </defs>
  <g id="linkedin-logo" transform="translate(0 -9.558)">
    <path id="LinkedIn" class="cls-1" d="M40,32.992V47.78H31.427v-13.8c0-3.466-1.24-5.832-4.343-5.832a4.691,4.691,0,0,0-4.4,3.136,5.866,5.866,0,0,0-.284,2.09v14.4H13.824s.116-23.369,0-25.79H22.4v3.656c-.017.027-.04.057-.056.083H22.4v-.083a8.515,8.515,0,0,1,7.728-4.262C35.77,21.384,40,25.07,40,32.992ZM4.853,9.558C1.919,9.558,0,11.482,0,14.013a4.442,4.442,0,0,0,4.739,4.458H4.8c2.991,0,4.851-1.982,4.851-4.458A4.454,4.454,0,0,0,4.853,9.558ZM.509,47.78H9.082V21.99H.509Z"/>
  </g>
</svg>
